<?xml version="1.0" encoding="UTF-8"?>
<svg width="672px" height="101px" viewBox="0 0 672 101" version="1.1" xmlns="http://www.w3.org/2000/svg" xmlns:xlink="http://www.w3.org/1999/xlink">
    <title>Group 31</title>
    <defs>
        <path d="M41.073,89.571 C32.225,87.102 23.277,58.173 0,43.948 L0,43.948 C8.157,51.945 11.36,58.562 11.91,61.419 L11.91,61.419 C16.197,83.675 35.777,100.487 59.283,100.487 L59.283,100.487 C85.929,100.487 107.529,78.887 107.529,52.241 L107.529,52.241 C107.529,40.386 103.254,29.53 96.161,21.13 L96.161,21.13 C95.234,20.032 94.808,9.826 105.25,0 L105.25,0 C60.517,26.056 59.117,94.607 41.073,89.571" id="path-1"></path>
        <linearGradient x1="68.5662043%" y1="87.5774149%" x2="45.6146588%" y2="14.9022474%" id="linearGradient-3">
            <stop stop-color="#FFDF00" offset="0%"></stop>
            <stop stop-color="#FD5028" offset="100%"></stop>
        </linearGradient>
        <path d="M91.157,0 C89.098,3.094 87.991,5.916 87.395,8.073 C86.397,11.68 86.376,15.264 87.342,16.41 C90.855,20.57 93.596,25.253 95.489,30.331 C97.448,35.585 98.441,41.12 98.441,46.781 C98.441,53.139 97.196,59.308 94.741,65.114 C92.369,70.722 88.973,75.759 84.647,80.085 C80.321,84.41 75.284,87.807 69.674,90.18 C63.87,92.635 57.701,93.88 51.342,93.88 C45.73,93.88 40.239,92.904 35.023,90.976 C29.983,89.115 25.327,86.417 21.182,82.958 C12.849,76.003 7.135,66.338 5.095,55.742 C4.675,53.568 3.095,50.069 -2.66453526e-15,45.829 C2.786,48.304 5.505,51.131 8.196,54.346 C12.848,59.904 16.629,65.665 19.965,70.749 C25.039,78.48 28.706,84.066 32.824,85.216 C33.549,85.419 34.274,85.521 34.976,85.521 L34.978,85.521 C42.504,85.52 46.978,74.414 53.17,59.043 C57.458,48.4 62.317,36.337 69.347,24.861" id="path-4"></path>
        <path d="M1.77635684e-15,41.34 C0.203,41.399 0.402,41.46 0.6,41.522 L0.6,41.522 C0.611,41.525 0.62,41.528 0.63,41.531 L0.63,41.531 C1.024,41.655 1.411,41.784 1.793,41.918 L1.793,41.918 C1.8,41.921 1.808,41.924 1.818,41.927 L1.818,41.927 C2.398,42.131 2.964,42.348 3.515,42.575 L3.515,42.575 C3.517,42.576 3.521,42.578 3.524,42.578 L3.524,42.578 C3.891,42.73 4.253,42.885 4.608,43.045 L4.608,43.045 C4.61,43.046 4.612,43.046 4.614,43.048 L4.614,43.048 C9.141,45.08 12.667,47.723 15.697,49.766 L15.697,49.766 C15.709,49.773 15.721,49.782 15.733,49.79 L15.733,49.79 C15.849,49.869 15.964,49.945 16.079,50.022 L16.079,50.022 C16.117,50.047 16.158,50.074 16.197,50.1 L16.197,50.1 C16.251,50.136 16.306,50.172 16.36,50.208 L16.36,50.208 C16.441,50.26 16.52,50.312 16.6,50.364 L16.6,50.364 C16.645,50.393 16.691,50.422 16.735,50.452 L16.735,50.452 C16.793,50.49 16.851,50.526 16.908,50.563 L16.908,50.563 C16.952,50.591 16.997,50.62 17.042,50.648 L17.042,50.648 C17.122,50.699 17.203,50.749 17.282,50.799 L17.282,50.799 C17.32,50.822 17.357,50.847 17.396,50.869 L17.396,50.869 C17.478,50.921 17.56,50.971 17.641,51.02 L17.641,51.02 C17.673,51.039 17.705,51.057 17.736,51.077 L17.736,51.077 C17.808,51.12 17.88,51.163 17.952,51.206 L17.952,51.206 C17.984,51.224 18.017,51.243 18.049,51.262 L18.049,51.262 C18.136,51.313 18.224,51.363 18.312,51.414 L18.312,51.414 C18.34,51.429 18.367,51.444 18.396,51.46 L18.396,51.46 C18.471,51.502 18.546,51.543 18.62,51.584 L18.62,51.584 C18.643,51.597 18.665,51.609 18.688,51.621 L18.688,51.621 C18.778,51.669 18.867,51.716 18.956,51.762 L18.956,51.762 C18.983,51.776 19.01,51.79 19.038,51.804 L19.038,51.804 C19.129,51.85 19.219,51.895 19.308,51.94 L19.308,51.94 C19.322,51.947 19.336,51.953 19.349,51.96 L19.349,51.96 C19.431,52 19.511,52.037 19.593,52.074 L19.593,52.074 C19.617,52.085 19.641,52.097 19.664,52.108 L19.664,52.108 C19.754,52.148 19.842,52.188 19.932,52.226 L19.932,52.226 C19.952,52.235 19.974,52.244 19.995,52.253 L19.995,52.253 C20.074,52.286 20.153,52.318 20.231,52.349 L20.231,52.349 C20.248,52.355 20.265,52.362 20.282,52.37 L20.282,52.37 C20.372,52.405 20.46,52.437 20.549,52.47 L20.549,52.47 C20.571,52.478 20.594,52.485 20.616,52.493 L20.616,52.493 C20.706,52.525 20.796,52.556 20.886,52.584 L20.886,52.584 C20.895,52.587 20.903,52.589 20.911,52.591 L20.911,52.591 C20.995,52.618 21.08,52.642 21.164,52.667 L21.164,52.667 C21.184,52.673 21.206,52.678 21.227,52.684 L21.227,52.684 C21.314,52.709 21.402,52.731 21.489,52.752 L21.489,52.752 C21.508,52.757 21.526,52.76 21.543,52.764 L21.543,52.764 C21.624,52.782 21.704,52.8 21.783,52.815 L21.783,52.815 C21.797,52.819 21.812,52.821 21.827,52.824 L21.827,52.824 C21.914,52.841 22.002,52.856 22.092,52.869 L22.092,52.869 C22.112,52.872 22.131,52.874 22.152,52.877 L22.152,52.877 C22.243,52.89 22.332,52.901 22.42,52.91 L22.42,52.91 C22.425,52.91 22.429,52.91 22.434,52.91 L22.434,52.91 C22.52,52.919 22.606,52.925 22.693,52.929 L22.693,52.929 C22.712,52.93 22.731,52.932 22.751,52.932 L22.751,52.932 C22.839,52.936 22.927,52.938 23.014,52.938 L23.014,52.938 C23.03,52.938 23.046,52.938 23.061,52.937 L23.061,52.937 C23.142,52.937 23.222,52.934 23.301,52.929 L23.301,52.929 C23.316,52.929 23.33,52.929 23.344,52.928 L23.344,52.928 C23.432,52.922 23.52,52.915 23.608,52.905 L23.608,52.905 C23.627,52.903 23.646,52.901 23.667,52.899 L23.667,52.899 C23.756,52.888 23.846,52.876 23.935,52.86 L23.935,52.86 C23.937,52.86 23.939,52.86 23.941,52.859 L23.941,52.859 C24.03,52.845 24.117,52.827 24.206,52.807 L24.206,52.807 C24.225,52.802 24.243,52.799 24.263,52.794 L24.263,52.794 C24.351,52.774 24.439,52.752 24.526,52.727 L24.526,52.727 C24.541,52.722 24.557,52.718 24.572,52.713 L24.572,52.713 C24.652,52.69 24.733,52.665 24.814,52.637 L24.814,52.637 C24.828,52.632 24.842,52.628 24.857,52.623 L24.857,52.623 C24.945,52.592 25.035,52.559 25.123,52.524 L25.123,52.524 C25.143,52.516 25.161,52.508 25.181,52.499 L25.181,52.499 C25.271,52.462 25.362,52.424 25.453,52.381 L25.453,52.381 C25.536,52.343 25.618,52.302 25.7,52.261 L25.7,52.261 C25.725,52.247 25.752,52.233 25.778,52.219 L25.778,52.219 C25.834,52.19 25.891,52.159 25.947,52.128 L25.947,52.128 L26.034,52.078 C26.089,52.047 26.144,52.015 26.198,51.983 L26.198,51.983 C26.226,51.966 26.253,51.949 26.281,51.932 L26.281,51.932 C26.346,51.893 26.41,51.851 26.475,51.81 L26.475,51.81 C26.491,51.799 26.507,51.789 26.524,51.778 L26.524,51.778 C26.604,51.725 26.684,51.671 26.764,51.615 L26.764,51.615 C26.786,51.599 26.807,51.584 26.827,51.569 L26.827,51.569 C26.888,51.527 26.946,51.483 27.006,51.44 L27.006,51.44 C27.033,51.419 27.06,51.399 27.089,51.377 L27.089,51.377 C27.142,51.336 27.195,51.294 27.25,51.253 L27.25,51.253 C27.278,51.23 27.305,51.209 27.333,51.186 L27.333,51.186 C27.39,51.14 27.448,51.093 27.506,51.045 L27.506,51.045 C27.528,51.027 27.55,51.009 27.572,50.99 L27.572,50.99 C27.652,50.924 27.732,50.855 27.81,50.786 L27.81,50.786 C27.822,50.775 27.833,50.765 27.844,50.755 L27.844,50.755 C27.912,50.695 27.979,50.633 28.048,50.57 L28.048,50.57 C28.073,50.547 28.098,50.523 28.123,50.499 L28.123,50.499 C28.178,50.448 28.234,50.396 28.289,50.344 L28.289,50.344 C28.315,50.318 28.342,50.291 28.369,50.265 L28.369,50.265 C28.426,50.21 28.481,50.156 28.536,50.1 L28.536,50.1 C28.56,50.076 28.583,50.053 28.607,50.029 L28.607,50.029 C28.684,49.951 28.76,49.874 28.836,49.794 L28.836,49.794 C28.839,49.791 28.842,49.788 28.843,49.786 L28.843,49.786 C28.923,49.702 29.003,49.617 29.084,49.529 L29.084,49.529 C29.104,49.508 29.124,49.484 29.145,49.463 L29.145,49.463 C29.204,49.398 29.264,49.332 29.323,49.266 L29.323,49.266 C29.348,49.238 29.373,49.21 29.398,49.182 L29.398,49.182 C29.455,49.117 29.511,49.052 29.569,48.986 L29.569,48.986 C29.592,48.959 29.615,48.932 29.638,48.906 L29.638,48.906 C29.706,48.827 29.774,48.748 29.841,48.668 L29.841,48.668 C29.854,48.653 29.865,48.64 29.876,48.626 L29.876,48.626 C29.958,48.528 30.039,48.429 30.121,48.33 L30.121,48.33 C30.132,48.316 30.143,48.303 30.154,48.291 L30.154,48.291 C30.223,48.204 30.293,48.118 30.363,48.03 L30.363,48.03 C30.384,48.004 30.405,47.978 30.425,47.951 L30.425,47.951 C30.487,47.873 30.548,47.795 30.611,47.716 L30.611,47.716 C30.632,47.689 30.653,47.663 30.672,47.636 L30.672,47.636 C30.74,47.548 30.808,47.459 30.876,47.371 L30.876,47.371 C30.889,47.354 30.902,47.337 30.915,47.32 L30.915,47.32 C31.083,47.1 31.25,46.875 31.418,46.645 L31.418,46.645 C31.429,46.628 31.442,46.611 31.453,46.596 L31.453,46.596 C31.526,46.497 31.598,46.397 31.67,46.297 L31.67,46.297 C31.686,46.276 31.701,46.255 31.716,46.234 L31.716,46.234 C31.791,46.131 31.865,46.026 31.941,45.919 L31.941,45.919 C31.948,45.908 31.957,45.895 31.966,45.882 L31.966,45.882 C32.229,45.513 32.494,45.129 32.761,44.737 L32.761,44.737 C32.763,44.734 32.765,44.731 32.767,44.728 L32.767,44.728 C37.156,38.285 42.355,28.946 51.036,19.915 L51.036,19.915 C51.044,19.908 51.053,19.899 51.059,19.891 L51.059,19.891 C51.778,19.144 52.521,18.399 53.289,17.658 L53.289,17.658 C53.302,17.646 53.314,17.635 53.325,17.623 L53.325,17.623 C53.472,17.481 53.619,17.34 53.769,17.198 L53.769,17.198 C53.781,17.188 53.791,17.177 53.802,17.167 L53.802,17.167 C54.42,16.58 55.055,15.996 55.706,15.416 L55.706,15.416 C55.718,15.406 55.729,15.396 55.741,15.386 L55.741,15.386 C55.894,15.249 56.049,15.113 56.202,14.977 L56.202,14.977 C56.225,14.958 56.247,14.939 56.27,14.919 L56.27,14.919 C56.93,14.342 57.608,13.768 58.304,13.199 L58.304,13.199 C58.308,13.194 58.314,13.191 58.319,13.186 L58.319,13.186 C58.48,13.055 58.642,12.923 58.804,12.793 L58.804,12.793 C58.835,12.769 58.865,12.744 58.896,12.72 L58.896,12.72 C59.056,12.591 59.217,12.464 59.378,12.336 L59.378,12.336 L59.445,12.284 C60.141,11.735 60.854,11.192 61.584,10.655 L61.584,10.655 C61.62,10.628 61.656,10.602 61.691,10.576 L61.691,10.576 C61.856,10.456 62.021,10.336 62.187,10.215 L62.187,10.215 C62.226,10.188 62.265,10.16 62.303,10.133 L62.303,10.133 C63.035,9.606 63.787,9.086 64.555,8.573 L64.555,8.573 C64.593,8.548 64.631,8.522 64.67,8.496 L64.67,8.496 C64.84,8.383 65.011,8.27 65.182,8.158 L65.182,8.158 C65.234,8.125 65.285,8.091 65.337,8.056 L65.337,8.056 C65.51,7.945 65.683,7.832 65.858,7.721 L65.858,7.721 C65.894,7.697 65.93,7.675 65.967,7.651 L65.967,7.651 C66.546,7.281 67.137,6.915 67.736,6.552 L67.736,6.552 C67.771,6.533 67.805,6.511 67.839,6.49 L67.839,6.49 C68.016,6.384 68.194,6.278 68.373,6.173 L68.373,6.173 C68.435,6.136 68.497,6.099 68.56,6.063 L68.56,6.063 C68.735,5.96 68.91,5.858 69.088,5.756 L69.088,5.756 C69.147,5.721 69.207,5.686 69.268,5.651 L69.268,5.651 C69.454,5.545 69.639,5.439 69.825,5.334 L69.825,5.334 C63.212,1.925 55.707,0 47.755,0 L47.755,0 C23.455,0 3.351,17.966 1.77635684e-15,41.34" id="path-6"></path>
        <path d="M46.47,0 C53.347,0 59.943,1.437 66.106,4.275 C66.058,4.304 65.859,4.424 65.859,4.424 C65.258,4.787 64.654,5.161 64.064,5.538 L63.954,5.608 C63.778,5.721 63.601,5.835 63.426,5.949 L63.269,6.052 C63.094,6.166 62.922,6.28 62.749,6.395 L62.633,6.472 C61.865,6.985 61.096,7.518 60.349,8.054 L60.232,8.139 C60.063,8.26 59.895,8.382 59.729,8.504 L59.621,8.583 C58.889,9.121 58.16,9.677 57.45,10.235 L57.382,10.288 C57.218,10.418 57.055,10.548 56.893,10.678 L56.8,10.752 C56.635,10.885 56.471,11.019 56.308,11.152 L56.292,11.165 C55.602,11.729 54.908,12.316 54.23,12.909 L54.162,12.968 C54.006,13.106 53.848,13.244 53.693,13.382 L53.659,13.413 C53.009,13.991 52.36,14.588 51.727,15.188 L51.696,15.218 C51.545,15.363 51.393,15.506 51.244,15.65 L51.208,15.686 C50.447,16.42 49.686,17.182 48.948,17.95 L48.923,17.976 C42.101,25.072 37.389,32.382 33.603,38.255 C32.524,39.93 31.504,41.511 30.534,42.936 C30.257,43.341 29.995,43.721 29.745,44.073 L29.721,44.107 C29.646,44.213 29.573,44.316 29.499,44.418 L29.455,44.481 C29.383,44.579 29.313,44.676 29.242,44.772 L29.207,44.822 C29.043,45.045 28.88,45.265 28.716,45.479 L28.678,45.529 C28.613,45.615 28.548,45.701 28.481,45.786 L28.421,45.863 C28.361,45.941 28.3,46.017 28.241,46.092 L28.18,46.168 C28.113,46.253 28.046,46.336 27.978,46.42 L27.95,46.456 C27.869,46.554 27.791,46.648 27.712,46.742 L27.676,46.785 C27.614,46.859 27.549,46.936 27.485,47.011 L27.417,47.088 C27.363,47.151 27.308,47.213 27.255,47.274 L27.183,47.354 C27.127,47.418 27.07,47.48 27.014,47.541 L26.955,47.606 C26.881,47.687 26.804,47.769 26.729,47.847 L26.715,47.863 C26.65,47.93 26.579,48.003 26.507,48.076 L26.44,48.142 C26.388,48.194 26.336,48.246 26.284,48.297 L26.208,48.37 C26.157,48.419 26.106,48.467 26.055,48.515 L25.986,48.58 C25.923,48.638 25.86,48.694 25.797,48.75 L25.774,48.771 C25.693,48.842 25.622,48.905 25.548,48.966 L25.489,49.015 C25.435,49.06 25.383,49.103 25.331,49.144 L25.259,49.201 C25.208,49.243 25.159,49.28 25.11,49.316 L25.036,49.373 C24.983,49.412 24.93,49.45 24.878,49.488 L24.82,49.529 C24.75,49.579 24.678,49.626 24.607,49.674 L24.565,49.702 C24.507,49.738 24.452,49.774 24.395,49.809 L24.323,49.853 C24.276,49.88 24.228,49.909 24.18,49.936 L24.104,49.979 C24.056,50.005 24.007,50.031 23.959,50.057 L23.892,50.092 C23.823,50.127 23.753,50.162 23.683,50.195 C23.608,50.23 23.533,50.262 23.459,50.292 L23.411,50.312 C23.34,50.341 23.268,50.368 23.197,50.393 L23.161,50.404 C23.096,50.427 23.031,50.447 22.966,50.465 L22.937,50.474 C22.86,50.496 22.791,50.514 22.72,50.53 L22.681,50.539 C22.604,50.556 22.534,50.57 22.465,50.582 L22.446,50.585 C22.385,50.595 22.315,50.604 22.246,50.613 L22.198,50.618 C22.13,50.625 22.06,50.632 21.99,50.636 L21.956,50.638 C21.892,50.641 21.828,50.643 21.764,50.644 L21.716,50.644 C21.649,50.644 21.583,50.642 21.515,50.64 L21.468,50.637 C21.397,50.633 21.328,50.628 21.257,50.622 L21.239,50.62 C21.166,50.613 21.095,50.604 21.026,50.595 L20.975,50.587 C20.902,50.576 20.829,50.564 20.756,50.55 L20.719,50.543 C20.65,50.529 20.584,50.516 20.515,50.5 L20.469,50.489 C20.395,50.472 20.319,50.452 20.245,50.431 L20.19,50.416 C20.117,50.395 20.044,50.374 19.97,50.35 L19.945,50.343 C19.87,50.319 19.792,50.292 19.713,50.264 L19.651,50.243 C19.573,50.214 19.494,50.185 19.416,50.154 L19.367,50.136 C19.298,50.108 19.226,50.079 19.156,50.048 L19.098,50.024 L18.9765,49.971625 L18.9765,49.971625 L18.789,49.887 C18.714,49.852 18.639,49.817 18.565,49.781 L18.525,49.762 C18.442,49.722 18.359,49.679 18.274,49.636 L18.198,49.597 C18.115,49.554 18.031,49.51 17.948,49.465 L17.883,49.43 C17.813,49.391 17.743,49.352 17.671,49.312 L17.591,49.268 C17.507,49.22 17.424,49.173 17.34,49.124 L17.25,49.07 C17.179,49.03 17.111,48.988 17.041,48.946 L16.951,48.892 C16.872,48.844 16.793,48.795 16.714,48.747 L16.602,48.679 C16.526,48.63 16.449,48.582 16.37,48.532 L16.072,48.341 L15.94,48.256 C15.862,48.206 15.784,48.154 15.706,48.103 L15.429,47.92 L15.3732566,47.8828688 L15.3732566,47.8828688 L15.1726851,47.7484198 C15.111102,47.7070408 15.065,47.676 15.065,47.676 L15.052,47.667 C14.553,47.331 14.043,46.98 13.504,46.608 C10.767,44.725 7.666,42.59 3.799,40.854 C3.422,40.686 3.047,40.524 2.675,40.371 C2.087,40.129 1.498,39.904 0.914,39.698 L0.887,39.688 C0.595,39.586 0.298,39.485 -1.77635684e-15,39.389 C1.768,28.659 7.245,18.829 15.492,11.622 C24.066,4.128 35.068,0 46.47,0 Z" id="path-8"></path>
        <linearGradient x1="32.7079038%" y1="27.4099654%" x2="36.8482625%" y2="31.8506622%" id="linearGradient-10">
            <stop stop-color="#FFFFFF" offset="0%"></stop>
            <stop stop-color="#FFFFFF" offset="100%"></stop>
        </linearGradient>
        <path d="M5.68434189e-14,59.151 L407.67,59.151 L407.67,0 L5.68434189e-14,0 L5.68434189e-14,59.151 Z M373.091,19.021 L385.481,4.621 L402.971,4.621 L401.271,6.62 L380.211,31.361 L380.211,54.54 L365.761,54.54 L365.761,31.461 L342.91,4.621 L360.481,4.621 L362.191,6.62 L372.941,19.191 L373.091,19.021 Z M282.431,4.621 L334.83,4.621 C336.051,4.621 337.141,4.901 338.101,5.46 L338.101,5.46 C339.061,6.02 339.87,6.771 340.541,7.71 L340.541,7.71 C340.56,7.741 340.58,7.761 340.591,7.79 L340.591,7.79 C341.231,8.711 341.721,9.751 342.061,10.911 L342.061,10.911 C342.401,12.101 342.571,13.361 342.571,14.681 L342.571,14.681 L342.571,31.781 C342.571,33.111 342.37,34.381 341.981,35.61 L341.981,35.61 C341.58,36.831 341.03,37.901 340.341,38.811 L340.341,38.811 C339.65,39.721 338.821,40.451 337.86,41.01 L337.86,41.01 C336.901,41.57 335.841,41.85 334.671,41.85 L334.671,41.85 L344.731,54.54 L328.831,54.54 L320.211,43.851 L319.821,43.851 L318.212,41.85 L297.051,41.85 L297.051,54.54 L282.431,54.54 L282.431,4.621 Z M226.04,4.621 L277.081,4.621 L277.081,19.721 L240.58,19.721 L240.58,22.971 L276.841,22.971 L276.841,36.18 L240.58,36.18 L240.58,39.431 L277.081,39.431 L277.081,54.54 L226.04,54.54 L226.04,4.621 Z M170.45,4.621 L221.481,4.621 L221.481,19.721 L203.191,19.721 L203.191,54.54 L188.66,54.54 L188.66,19.721 L170.45,19.721 L170.45,4.621 Z M116.65,4.621 L167.691,4.621 L167.691,19.721 L149.4,19.721 L149.4,54.54 L134.861,54.54 L134.861,19.721 L116.65,19.721 L116.65,4.621 Z M60.631,52.961 C59.87,52.511 59.16,52.02 58.5,51.461 L58.5,51.461 C57.601,50.721 56.79,49.87 56.07,48.93 L56.07,48.93 C54.82,47.281 53.881,45.43 53.241,43.37 L53.241,43.37 C52.601,41.31 52.28,39.261 52.28,37.23 L52.28,37.23 L52.28,21.92 C52.28,19.89 52.601,17.851 53.241,15.791 L53.241,15.791 C53.881,13.721 54.82,11.87 56.07,10.23 L56.07,10.23 C57.321,8.591 58.842,7.241 60.631,6.191 L60.631,6.191 C62.41,5.141 64.471,4.621 66.821,4.621 L66.821,4.621 L97.971,4.621 C100.25,4.621 102.29,5.141 104.071,6.191 L104.071,6.191 C105.66,7.121 107.04,8.301 108.2,9.7 L108.2,9.7 C108.351,9.87 108.491,10.05 108.631,10.23 L108.631,10.23 C109.881,11.87 110.821,13.721 111.461,15.791 L111.461,15.791 C112.101,17.851 112.421,19.89 112.421,21.92 L112.421,21.92 L112.421,37.23 C112.421,39.261 112.101,41.31 111.461,43.37 L111.461,43.37 C110.821,45.43 109.881,47.281 108.631,48.93 L108.631,48.93 C107.381,50.57 105.86,51.91 104.071,52.961 L104.071,52.961 C102.29,54.011 100.25,54.54 97.971,54.54 L97.971,54.54 L66.821,54.54 C64.471,54.54 62.41,54.011 60.631,52.961 L60.631,52.961 Z M4,4.621 L18.54,4.621 L18.54,39.431 L49.851,39.431 L49.851,54.54 L4,54.54 L4,4.621 Z M70.25,19.721 C68.12,19.721 66.981,21.081 66.821,23.81 L66.821,23.81 L66.821,35.34 C66.95,37.571 67.741,38.891 69.191,39.3 L69.191,39.3 C69.511,39.381 69.86,39.431 70.25,39.431 L70.25,39.431 L94.451,39.431 C96.531,39.431 97.701,38.071 97.971,35.34 L97.971,35.34 L97.971,23.81 C97.891,23.051 97.75,22.401 97.531,21.861 L97.531,21.861 C96.991,20.43 95.961,19.721 94.451,19.721 L94.451,19.721 L70.25,19.721 Z M296.971,19.821 L296.971,26.75 L327.321,26.75 C327.641,25.421 327.801,24.23 327.801,23.18 L327.801,23.18 C327.801,22.75 327.77,22.3 327.7,21.821 L327.7,21.821 C327.631,21.2 327.5,20.531 327.321,19.821 L327.321,19.821 L296.971,19.821 Z" id="path-11"></path>
        <linearGradient x1="103.749258%" y1="48.6294889%" x2="-118.124232%" y2="54.2868995%" id="linearGradient-13">
            <stop stop-color="#FFDF00" offset="0%"></stop>
            <stop stop-color="#FD5028" offset="100%"></stop>
        </linearGradient>
        <polygon id="path-14" points="59.411 0 39.639 37.268 19.96 0 -1.42108547e-14 0 30.746 59.132 48.627 59.132 79.373 0"></polygon>
        <linearGradient x1="-24.8384063%" y1="31.2119669%" x2="353.901336%" y2="106.745115%" id="linearGradient-16">
            <stop stop-color="#FFDF00" offset="0%"></stop>
            <stop stop-color="#FD5028" offset="100%"></stop>
        </linearGradient>
        <polygon id="path-17" points="49.573 0 49.573 34.411 18.448 0 2.84217094e-14 0 2.84217094e-14 59.132 17.218 59.132 17.218 24.721 48.249 59.132 66.696 59.132 66.696 0"></polygon>
        <linearGradient x1="-147.112682%" y1="3.21707786%" x2="303.614642%" y2="110.192399%" id="linearGradient-19">
            <stop stop-color="#FFDF00" offset="0%"></stop>
            <stop stop-color="#FD5028" offset="100%"></stop>
        </linearGradient>
    </defs>
    <g id="10_交易狀況/歷史" stroke="none" stroke-width="1" fill="none" fill-rule="evenodd">
        <g id="Group-31">
            <g id="Group-3">
                <mask id="mask-2" fill="white">
                    <use xlink:href="#path-1"></use>
                </mask>
                <g id="Clip-2"></g>
                <path d="M41.073,89.571 C32.225,87.102 23.277,58.173 0,43.948 L0,43.948 C8.157,51.945 11.36,58.562 11.91,61.419 L11.91,61.419 C16.197,83.675 35.777,100.487 59.283,100.487 L59.283,100.487 C85.929,100.487 107.529,78.887 107.529,52.241 L107.529,52.241 C107.529,40.386 103.254,29.53 96.161,21.13 L96.161,21.13 C95.234,20.032 94.808,9.826 105.25,0 L105.25,0 C60.517,26.056 59.117,94.607 41.073,89.571" id="Fill-1" fill="url(#linearGradient-3)" mask="url(#mask-2)"></path>
            </g>
            <g id="Group-6" transform="translate(7.941000, 5.460000)">
                <mask id="mask-5" fill="white">
                    <use xlink:href="#path-4"></use>
                </mask>
                <g id="Clip-5"></g>
                <path d="M51.342,93.88 C45.73,93.88 40.239,92.904 35.023,90.976 C29.983,89.115 25.327,86.417 21.182,82.958 C12.849,76.003 7.135,66.338 5.095,55.742 C4.675,53.568 3.095,50.069 -2.66453526e-15,45.829 C2.786,48.304 5.505,51.131 8.196,54.346 C12.848,59.904 16.629,65.665 19.965,70.749 C25.039,78.48 28.706,84.066 32.824,85.216 C33.549,85.419 34.274,85.521 34.976,85.521 L34.978,85.521 C42.504,85.52 46.978,74.414 53.17,59.043 C57.458,48.4 62.317,36.337 69.347,24.861 C75.785,14.352 82.965,6.156 91.157,0 C89.098,3.094 87.991,5.916 87.395,8.073 C86.397,11.68 86.376,15.264 87.342,16.41 C90.855,20.57 93.596,25.253 95.489,30.331 C97.448,35.585 98.441,41.12 98.441,46.781 C98.441,53.139 97.196,59.308 94.741,65.114 C92.369,70.722 88.973,75.759 84.647,80.085 C80.321,84.41 75.284,87.807 69.674,90.18 C63.87,92.635 57.701,93.88 51.342,93.88" id="Fill-4" mask="url(#mask-5)"></path>
            </g>
            <g id="Group-9" transform="translate(11.528000, 3.994000)">
                <mask id="mask-7" fill="white">
                    <use xlink:href="#path-6"></use>
                </mask>
                <g id="Clip-8"></g>
                <path d="M1.77635684e-15,41.34 C0.203,41.399 0.402,41.46 0.6,41.522 L0.6,41.522 C0.611,41.525 0.62,41.528 0.63,41.531 L0.63,41.531 C1.024,41.655 1.411,41.784 1.793,41.918 L1.793,41.918 C1.8,41.921 1.808,41.924 1.818,41.927 L1.818,41.927 C2.398,42.131 2.964,42.348 3.515,42.575 L3.515,42.575 C3.517,42.576 3.521,42.578 3.524,42.578 L3.524,42.578 C3.891,42.73 4.253,42.885 4.608,43.045 L4.608,43.045 C4.61,43.046 4.612,43.046 4.614,43.048 L4.614,43.048 C9.141,45.08 12.667,47.723 15.697,49.766 L15.697,49.766 C15.709,49.773 15.721,49.782 15.733,49.79 L15.733,49.79 C15.849,49.869 15.964,49.945 16.079,50.022 L16.079,50.022 C16.117,50.047 16.158,50.074 16.197,50.1 L16.197,50.1 C16.251,50.136 16.306,50.172 16.36,50.208 L16.36,50.208 C16.441,50.26 16.52,50.312 16.6,50.364 L16.6,50.364 C16.645,50.393 16.691,50.422 16.735,50.452 L16.735,50.452 C16.793,50.49 16.851,50.526 16.908,50.563 L16.908,50.563 C16.952,50.591 16.997,50.62 17.042,50.648 L17.042,50.648 C17.122,50.699 17.203,50.749 17.282,50.799 L17.282,50.799 C17.32,50.822 17.357,50.847 17.396,50.869 L17.396,50.869 C17.478,50.921 17.56,50.971 17.641,51.02 L17.641,51.02 C17.673,51.039 17.705,51.057 17.736,51.077 L17.736,51.077 C17.808,51.12 17.88,51.163 17.952,51.206 L17.952,51.206 C17.984,51.224 18.017,51.243 18.049,51.262 L18.049,51.262 C18.136,51.313 18.224,51.363 18.312,51.414 L18.312,51.414 C18.34,51.429 18.367,51.444 18.396,51.46 L18.396,51.46 C18.471,51.502 18.546,51.543 18.62,51.584 L18.62,51.584 C18.643,51.597 18.665,51.609 18.688,51.621 L18.688,51.621 C18.778,51.669 18.867,51.716 18.956,51.762 L18.956,51.762 C18.983,51.776 19.01,51.79 19.038,51.804 L19.038,51.804 C19.129,51.85 19.219,51.895 19.308,51.94 L19.308,51.94 C19.322,51.947 19.336,51.953 19.349,51.96 L19.349,51.96 C19.431,52 19.511,52.037 19.593,52.074 L19.593,52.074 C19.617,52.085 19.641,52.097 19.664,52.108 L19.664,52.108 C19.754,52.148 19.842,52.188 19.932,52.226 L19.932,52.226 C19.952,52.235 19.974,52.244 19.995,52.253 L19.995,52.253 C20.074,52.286 20.153,52.318 20.231,52.349 L20.231,52.349 C20.248,52.355 20.265,52.362 20.282,52.37 L20.282,52.37 C20.372,52.405 20.46,52.437 20.549,52.47 L20.549,52.47 C20.571,52.478 20.594,52.485 20.616,52.493 L20.616,52.493 C20.706,52.525 20.796,52.556 20.886,52.584 L20.886,52.584 C20.895,52.587 20.903,52.589 20.911,52.591 L20.911,52.591 C20.995,52.618 21.08,52.642 21.164,52.667 L21.164,52.667 C21.184,52.673 21.206,52.678 21.227,52.684 L21.227,52.684 C21.314,52.709 21.402,52.731 21.489,52.752 L21.489,52.752 C21.508,52.757 21.526,52.76 21.543,52.764 L21.543,52.764 C21.624,52.782 21.704,52.8 21.783,52.815 L21.783,52.815 C21.797,52.819 21.812,52.821 21.827,52.824 L21.827,52.824 C21.914,52.841 22.002,52.856 22.092,52.869 L22.092,52.869 C22.112,52.872 22.131,52.874 22.152,52.877 L22.152,52.877 C22.243,52.89 22.332,52.901 22.42,52.91 L22.42,52.91 C22.425,52.91 22.429,52.91 22.434,52.91 L22.434,52.91 C22.52,52.919 22.606,52.925 22.693,52.929 L22.693,52.929 C22.712,52.93 22.731,52.932 22.751,52.932 L22.751,52.932 C22.839,52.936 22.927,52.938 23.014,52.938 L23.014,52.938 C23.03,52.938 23.046,52.938 23.061,52.937 L23.061,52.937 C23.142,52.937 23.222,52.934 23.301,52.929 L23.301,52.929 C23.316,52.929 23.33,52.929 23.344,52.928 L23.344,52.928 C23.432,52.922 23.52,52.915 23.608,52.905 L23.608,52.905 C23.627,52.903 23.646,52.901 23.667,52.899 L23.667,52.899 C23.756,52.888 23.846,52.876 23.935,52.86 L23.935,52.86 C23.937,52.86 23.939,52.86 23.941,52.859 L23.941,52.859 C24.03,52.845 24.117,52.827 24.206,52.807 L24.206,52.807 C24.225,52.802 24.243,52.799 24.263,52.794 L24.263,52.794 C24.351,52.774 24.439,52.752 24.526,52.727 L24.526,52.727 C24.541,52.722 24.557,52.718 24.572,52.713 L24.572,52.713 C24.652,52.69 24.733,52.665 24.814,52.637 L24.814,52.637 C24.828,52.632 24.842,52.628 24.857,52.623 L24.857,52.623 C24.945,52.592 25.035,52.559 25.123,52.524 L25.123,52.524 C25.143,52.516 25.161,52.508 25.181,52.499 L25.181,52.499 C25.271,52.462 25.362,52.424 25.453,52.381 L25.453,52.381 C25.536,52.343 25.618,52.302 25.7,52.261 L25.7,52.261 C25.725,52.247 25.752,52.233 25.778,52.219 L25.778,52.219 C25.834,52.19 25.891,52.159 25.947,52.128 L25.947,52.128 L26.034,52.078 C26.089,52.047 26.144,52.015 26.198,51.983 L26.198,51.983 C26.226,51.966 26.253,51.949 26.281,51.932 L26.281,51.932 C26.346,51.893 26.41,51.851 26.475,51.81 L26.475,51.81 C26.491,51.799 26.507,51.789 26.524,51.778 L26.524,51.778 C26.604,51.725 26.684,51.671 26.764,51.615 L26.764,51.615 C26.786,51.599 26.807,51.584 26.827,51.569 L26.827,51.569 C26.888,51.527 26.946,51.483 27.006,51.44 L27.006,51.44 C27.033,51.419 27.06,51.399 27.089,51.377 L27.089,51.377 C27.142,51.336 27.195,51.294 27.25,51.253 L27.25,51.253 C27.278,51.23 27.305,51.209 27.333,51.186 L27.333,51.186 C27.39,51.14 27.448,51.093 27.506,51.045 L27.506,51.045 C27.528,51.027 27.55,51.009 27.572,50.99 L27.572,50.99 C27.652,50.924 27.732,50.855 27.81,50.786 L27.81,50.786 C27.822,50.775 27.833,50.765 27.844,50.755 L27.844,50.755 C27.912,50.695 27.979,50.633 28.048,50.57 L28.048,50.57 C28.073,50.547 28.098,50.523 28.123,50.499 L28.123,50.499 C28.178,50.448 28.234,50.396 28.289,50.344 L28.289,50.344 C28.315,50.318 28.342,50.291 28.369,50.265 L28.369,50.265 C28.426,50.21 28.481,50.156 28.536,50.1 L28.536,50.1 C28.56,50.076 28.583,50.053 28.607,50.029 L28.607,50.029 C28.684,49.951 28.76,49.874 28.836,49.794 L28.836,49.794 C28.839,49.791 28.842,49.788 28.843,49.786 L28.843,49.786 C28.923,49.702 29.003,49.617 29.084,49.529 L29.084,49.529 C29.104,49.508 29.124,49.484 29.145,49.463 L29.145,49.463 C29.204,49.398 29.264,49.332 29.323,49.266 L29.323,49.266 C29.348,49.238 29.373,49.21 29.398,49.182 L29.398,49.182 C29.455,49.117 29.511,49.052 29.569,48.986 L29.569,48.986 C29.592,48.959 29.615,48.932 29.638,48.906 L29.638,48.906 C29.706,48.827 29.774,48.748 29.841,48.668 L29.841,48.668 C29.854,48.653 29.865,48.64 29.876,48.626 L29.876,48.626 C29.958,48.528 30.039,48.429 30.121,48.33 L30.121,48.33 C30.132,48.316 30.143,48.303 30.154,48.291 L30.154,48.291 C30.223,48.204 30.293,48.118 30.363,48.03 L30.363,48.03 C30.384,48.004 30.405,47.978 30.425,47.951 L30.425,47.951 C30.487,47.873 30.548,47.795 30.611,47.716 L30.611,47.716 C30.632,47.689 30.653,47.663 30.672,47.636 L30.672,47.636 C30.74,47.548 30.808,47.459 30.876,47.371 L30.876,47.371 C30.889,47.354 30.902,47.337 30.915,47.32 L30.915,47.32 C31.083,47.1 31.25,46.875 31.418,46.645 L31.418,46.645 C31.429,46.628 31.442,46.611 31.453,46.596 L31.453,46.596 C31.526,46.497 31.598,46.397 31.67,46.297 L31.67,46.297 C31.686,46.276 31.701,46.255 31.716,46.234 L31.716,46.234 C31.791,46.131 31.865,46.026 31.941,45.919 L31.941,45.919 C31.948,45.908 31.957,45.895 31.966,45.882 L31.966,45.882 C32.229,45.513 32.494,45.129 32.761,44.737 L32.761,44.737 C32.763,44.734 32.765,44.731 32.767,44.728 L32.767,44.728 C37.156,38.285 42.355,28.946 51.036,19.915 L51.036,19.915 C51.044,19.908 51.053,19.899 51.059,19.891 L51.059,19.891 C51.778,19.144 52.521,18.399 53.289,17.658 L53.289,17.658 C53.302,17.646 53.314,17.635 53.325,17.623 L53.325,17.623 C53.472,17.481 53.619,17.34 53.769,17.198 L53.769,17.198 C53.781,17.188 53.791,17.177 53.802,17.167 L53.802,17.167 C54.42,16.58 55.055,15.996 55.706,15.416 L55.706,15.416 C55.718,15.406 55.729,15.396 55.741,15.386 L55.741,15.386 C55.894,15.249 56.049,15.113 56.202,14.977 L56.202,14.977 C56.225,14.958 56.247,14.939 56.27,14.919 L56.27,14.919 C56.93,14.342 57.608,13.768 58.304,13.199 L58.304,13.199 C58.308,13.194 58.314,13.191 58.319,13.186 L58.319,13.186 C58.48,13.055 58.642,12.923 58.804,12.793 L58.804,12.793 C58.835,12.769 58.865,12.744 58.896,12.72 L58.896,12.72 C59.056,12.591 59.217,12.464 59.378,12.336 L59.378,12.336 L59.445,12.284 C60.141,11.735 60.854,11.192 61.584,10.655 L61.584,10.655 C61.62,10.628 61.656,10.602 61.691,10.576 L61.691,10.576 C61.856,10.456 62.021,10.336 62.187,10.215 L62.187,10.215 C62.226,10.188 62.265,10.16 62.303,10.133 L62.303,10.133 C63.035,9.606 63.787,9.086 64.555,8.573 L64.555,8.573 C64.593,8.548 64.631,8.522 64.67,8.496 L64.67,8.496 C64.84,8.383 65.011,8.27 65.182,8.158 L65.182,8.158 C65.234,8.125 65.285,8.091 65.337,8.056 L65.337,8.056 C65.51,7.945 65.683,7.832 65.858,7.721 L65.858,7.721 C65.894,7.697 65.93,7.675 65.967,7.651 L65.967,7.651 C66.546,7.281 67.137,6.915 67.736,6.552 L67.736,6.552 C67.771,6.533 67.805,6.511 67.839,6.49 L67.839,6.49 C68.016,6.384 68.194,6.278 68.373,6.173 L68.373,6.173 C68.435,6.136 68.497,6.099 68.56,6.063 L68.56,6.063 C68.735,5.96 68.91,5.858 69.088,5.756 L69.088,5.756 C69.147,5.721 69.207,5.686 69.268,5.651 L69.268,5.651 C69.454,5.545 69.639,5.439 69.825,5.334 L69.825,5.334 C63.212,1.925 55.707,0 47.755,0 L47.755,0 C23.455,0 3.351,17.966 1.77635684e-15,41.34" id="Fill-7" mask="url(#mask-7)"></path>
            </g>
            <g id="Group-12" transform="translate(12.813000, 5.141000)">
                <mask id="mask-9" fill="white">
                    <use xlink:href="#path-8"></use>
                </mask>
                <g id="Clip-11"></g>
                <path d="M21.716,50.644 C21.649,50.644 21.583,50.642 21.515,50.64 L21.468,50.637 C21.397,50.633 21.328,50.628 21.257,50.622 L21.239,50.62 C21.166,50.613 21.095,50.604 21.026,50.595 L20.975,50.587 C20.902,50.576 20.829,50.564 20.756,50.55 L20.719,50.543 C20.65,50.529 20.584,50.516 20.515,50.5 L20.469,50.489 C20.395,50.472 20.319,50.452 20.245,50.431 L20.19,50.416 C20.117,50.395 20.044,50.374 19.97,50.35 L19.945,50.343 C19.87,50.319 19.792,50.292 19.713,50.264 L19.651,50.243 C19.573,50.214 19.494,50.185 19.416,50.154 L19.367,50.136 C19.298,50.108 19.226,50.079 19.156,50.048 L19.098,50.024 C19.017,49.99 18.936,49.954 18.855,49.917 L18.789,49.887 C18.714,49.852 18.639,49.817 18.565,49.781 L18.525,49.762 C18.442,49.722 18.359,49.679 18.274,49.636 L18.198,49.597 C18.115,49.554 18.031,49.51 17.948,49.465 L17.883,49.43 C17.813,49.391 17.743,49.352 17.671,49.312 L17.591,49.268 C17.507,49.22 17.424,49.173 17.34,49.124 L17.25,49.07 C17.179,49.03 17.111,48.988 17.041,48.946 L16.951,48.892 C16.872,48.844 16.793,48.795 16.714,48.747 L16.602,48.679 C16.526,48.63 16.449,48.582 16.37,48.532 L16.072,48.341 L15.94,48.256 C15.862,48.206 15.784,48.154 15.706,48.103 L15.429,47.92 C15.316,47.845 15.065,47.676 15.065,47.676 L15.052,47.667 C14.553,47.331 14.043,46.98 13.504,46.608 C10.767,44.725 7.666,42.59 3.799,40.854 C3.422,40.686 3.047,40.524 2.675,40.371 C2.087,40.129 1.498,39.904 0.914,39.698 L0.887,39.688 C0.595,39.586 0.298,39.485 -1.77635684e-15,39.389 C1.768,28.659 7.245,18.829 15.492,11.622 C24.066,4.128 35.068,0 46.47,0 C53.347,0 59.943,1.437 66.106,4.275 C66.058,4.304 65.859,4.424 65.859,4.424 C65.258,4.787 64.654,5.161 64.064,5.538 L63.954,5.608 C63.778,5.721 63.601,5.835 63.426,5.949 L63.269,6.052 C63.094,6.166 62.922,6.28 62.749,6.395 L62.633,6.472 C61.865,6.985 61.096,7.518 60.349,8.054 L60.232,8.139 C60.063,8.26 59.895,8.382 59.729,8.504 L59.621,8.583 C58.889,9.121 58.16,9.677 57.45,10.235 L57.382,10.288 C57.218,10.418 57.055,10.548 56.893,10.678 L56.8,10.752 C56.635,10.885 56.471,11.019 56.308,11.152 L56.292,11.165 C55.602,11.729 54.908,12.316 54.23,12.909 L54.162,12.968 C54.006,13.106 53.848,13.244 53.693,13.382 L53.659,13.413 C53.009,13.991 52.36,14.588 51.727,15.188 L51.696,15.218 C51.545,15.363 51.393,15.506 51.244,15.65 L51.208,15.686 C50.447,16.42 49.686,17.182 48.948,17.95 L48.923,17.976 C42.101,25.072 37.389,32.382 33.603,38.255 C32.524,39.93 31.504,41.511 30.534,42.936 C30.257,43.341 29.995,43.721 29.745,44.073 L29.721,44.107 C29.646,44.213 29.573,44.316 29.499,44.418 L29.455,44.481 C29.383,44.579 29.313,44.676 29.242,44.772 L29.207,44.822 C29.043,45.045 28.88,45.265 28.716,45.479 L28.678,45.529 C28.613,45.615 28.548,45.701 28.481,45.786 L28.421,45.863 C28.361,45.941 28.3,46.017 28.241,46.092 L28.18,46.168 C28.113,46.253 28.046,46.336 27.978,46.42 L27.95,46.456 C27.869,46.554 27.791,46.648 27.712,46.742 L27.676,46.785 C27.614,46.859 27.549,46.936 27.485,47.011 L27.417,47.088 C27.363,47.151 27.308,47.213 27.255,47.274 L27.183,47.354 C27.127,47.418 27.07,47.48 27.014,47.541 L26.955,47.606 C26.881,47.687 26.804,47.769 26.729,47.847 L26.715,47.863 C26.65,47.93 26.579,48.003 26.507,48.076 L26.44,48.142 C26.388,48.194 26.336,48.246 26.284,48.297 L26.208,48.37 C26.157,48.419 26.106,48.467 26.055,48.515 L25.986,48.58 C25.923,48.638 25.86,48.694 25.797,48.75 L25.774,48.771 C25.693,48.842 25.622,48.905 25.548,48.966 L25.489,49.015 C25.435,49.06 25.383,49.103 25.331,49.144 L25.259,49.201 C25.208,49.243 25.159,49.28 25.11,49.316 L25.036,49.373 C24.983,49.412 24.93,49.45 24.878,49.488 L24.82,49.529 C24.75,49.579 24.678,49.626 24.607,49.674 L24.565,49.702 C24.507,49.738 24.452,49.774 24.395,49.809 L24.323,49.853 C24.276,49.88 24.228,49.909 24.18,49.936 L24.104,49.979 C24.056,50.005 24.007,50.031 23.959,50.057 L23.892,50.092 C23.823,50.127 23.753,50.162 23.683,50.195 C23.608,50.23 23.533,50.262 23.459,50.292 L23.411,50.312 C23.34,50.341 23.268,50.368 23.197,50.393 L23.161,50.404 C23.096,50.427 23.031,50.447 22.966,50.465 L22.937,50.474 C22.86,50.496 22.791,50.514 22.72,50.53 L22.681,50.539 C22.604,50.556 22.534,50.57 22.465,50.582 L22.446,50.585 C22.385,50.595 22.315,50.604 22.246,50.613 L22.198,50.618 C22.13,50.625 22.06,50.632 21.99,50.636 L21.956,50.638 C21.892,50.641 21.828,50.643 21.764,50.644 L21.716,50.644 Z" id="Fill-10" fill="url(#linearGradient-10)" mask="url(#mask-9)"></path>
            </g>
            <g id="Group-15" transform="translate(263.786000, 27.064000)">
                <mask id="mask-12" fill="white">
                    <use xlink:href="#path-11"></use>
                </mask>
                <g id="Clip-14"></g>
                <path d="M5.68434189e-14,59.151 L407.67,59.151 L407.67,0 L5.68434189e-14,0 L5.68434189e-14,59.151 Z M373.091,19.021 L385.481,4.621 L402.971,4.621 L401.271,6.62 L380.211,31.361 L380.211,54.54 L365.761,54.54 L365.761,31.461 L342.91,4.621 L360.481,4.621 L362.191,6.62 L372.941,19.191 L373.091,19.021 Z M282.431,4.621 L334.83,4.621 C336.051,4.621 337.141,4.901 338.101,5.46 L338.101,5.46 C339.061,6.02 339.87,6.771 340.541,7.71 L340.541,7.71 C340.56,7.741 340.58,7.761 340.591,7.79 L340.591,7.79 C341.231,8.711 341.721,9.751 342.061,10.911 L342.061,10.911 C342.401,12.101 342.571,13.361 342.571,14.681 L342.571,14.681 L342.571,31.781 C342.571,33.111 342.37,34.381 341.981,35.61 L341.981,35.61 C341.58,36.831 341.03,37.901 340.341,38.811 L340.341,38.811 C339.65,39.721 338.821,40.451 337.86,41.01 L337.86,41.01 C336.901,41.57 335.841,41.85 334.671,41.85 L334.671,41.85 L344.731,54.54 L328.831,54.54 L320.211,43.851 L319.821,43.851 L318.212,41.85 L297.051,41.85 L297.051,54.54 L282.431,54.54 L282.431,4.621 Z M226.04,4.621 L277.081,4.621 L277.081,19.721 L240.58,19.721 L240.58,22.971 L276.841,22.971 L276.841,36.18 L240.58,36.18 L240.58,39.431 L277.081,39.431 L277.081,54.54 L226.04,54.54 L226.04,4.621 Z M170.45,4.621 L221.481,4.621 L221.481,19.721 L203.191,19.721 L203.191,54.54 L188.66,54.54 L188.66,19.721 L170.45,19.721 L170.45,4.621 Z M116.65,4.621 L167.691,4.621 L167.691,19.721 L149.4,19.721 L149.4,54.54 L134.861,54.54 L134.861,19.721 L116.65,19.721 L116.65,4.621 Z M60.631,52.961 C59.87,52.511 59.16,52.02 58.5,51.461 L58.5,51.461 C57.601,50.721 56.79,49.87 56.07,48.93 L56.07,48.93 C54.82,47.281 53.881,45.43 53.241,43.37 L53.241,43.37 C52.601,41.31 52.28,39.261 52.28,37.23 L52.28,37.23 L52.28,21.92 C52.28,19.89 52.601,17.851 53.241,15.791 L53.241,15.791 C53.881,13.721 54.82,11.87 56.07,10.23 L56.07,10.23 C57.321,8.591 58.842,7.241 60.631,6.191 L60.631,6.191 C62.41,5.141 64.471,4.621 66.821,4.621 L66.821,4.621 L97.971,4.621 C100.25,4.621 102.29,5.141 104.071,6.191 L104.071,6.191 C105.66,7.121 107.04,8.301 108.2,9.7 L108.2,9.7 C108.351,9.87 108.491,10.05 108.631,10.23 L108.631,10.23 C109.881,11.87 110.821,13.721 111.461,15.791 L111.461,15.791 C112.101,17.851 112.421,19.89 112.421,21.92 L112.421,21.92 L112.421,37.23 C112.421,39.261 112.101,41.31 111.461,43.37 L111.461,43.37 C110.821,45.43 109.881,47.281 108.631,48.93 L108.631,48.93 C107.381,50.57 105.86,51.91 104.071,52.961 L104.071,52.961 C102.29,54.011 100.25,54.54 97.971,54.54 L97.971,54.54 L66.821,54.54 C64.471,54.54 62.41,54.011 60.631,52.961 L60.631,52.961 Z M4,4.621 L18.54,4.621 L18.54,39.431 L49.851,39.431 L49.851,54.54 L4,54.54 L4,4.621 Z M70.25,19.721 C68.12,19.721 66.981,21.081 66.821,23.81 L66.821,23.81 L66.821,35.34 C66.95,37.571 67.741,38.891 69.191,39.3 L69.191,39.3 C69.511,39.381 69.86,39.431 70.25,39.431 L70.25,39.431 L94.451,39.431 C96.531,39.431 97.701,38.071 97.971,35.34 L97.971,35.34 L97.971,23.81 C97.891,23.051 97.75,22.401 97.531,21.861 L97.531,21.861 C96.991,20.43 95.961,19.721 94.451,19.721 L94.451,19.721 L70.25,19.721 Z M296.971,19.821 L296.971,26.75 L327.321,26.75 C327.641,25.421 327.801,24.23 327.801,23.18 L327.801,23.18 C327.801,22.75 327.77,22.3 327.7,21.821 L327.7,21.821 C327.631,21.2 327.5,20.531 327.321,19.821 L327.321,19.821 L296.971,19.821 Z" id="Fill-13" fill="url(#linearGradient-13)" mask="url(#mask-12)"></path>
            </g>
            <g id="Group-18" transform="translate(118.624000, 27.012000)">
                <mask id="mask-15" fill="white">
                    <use xlink:href="#path-14"></use>
                </mask>
                <g id="Clip-17"></g>
                <polygon id="Fill-16" fill="url(#linearGradient-16)" mask="url(#mask-15)" points="59.411 0 39.639 37.268 19.96 0 -1.42108547e-14 0 30.746 59.132 48.627 59.132 79.373 0"></polygon>
            </g>
            <g id="Group-21" transform="translate(201.090000, 27.012000)">
                <mask id="mask-18" fill="white">
                    <use xlink:href="#path-17"></use>
                </mask>
                <g id="Clip-20"></g>
                <polygon id="Fill-19" fill="url(#linearGradient-19)" mask="url(#mask-18)" points="49.573 0 49.573 34.411 18.448 0 2.84217094e-14 0 2.84217094e-14 59.132 17.218 59.132 17.218 24.721 48.249 59.132 66.696 59.132 66.696 0"></polygon>
            </g>
            <g id="Group-30" transform="translate(269.786000, 33.684000)" fill="#FFFEFD">
                <path d="M12.54,32.811 L14.54,32.811 L14.54,0.001 L12.54,0.001 L12.54,32.811 Z M43.851,34.811 L43.851,47.92 L5.68434189e-14,47.92 L5.68434189e-14,49.92 L45.851,49.92 L45.851,34.811 L43.851,34.811 Z" id="Fill-22"></path>
                <path d="M107.4612,11.1704 C106.8202,9.1004 105.8812,7.2504 104.6312,5.6104 C103.9102,4.6704 103.1012,3.8204 102.2002,3.0804 C102.3512,3.2504 102.4902,3.4304 102.6312,3.6104 C103.8812,5.2504 104.8202,7.1004 105.4612,9.1704 C106.1012,11.2304 106.4212,13.2704 106.4212,15.3004 L106.4212,30.6104 C106.4212,32.6404 106.1012,34.6904 105.4612,36.7504 C104.8202,38.8104 103.8812,40.6604 102.6312,42.3104 C101.3812,43.9504 99.8602,45.2904 98.0702,46.3404 C96.2902,47.3904 94.2502,47.9204 91.9712,47.9204 L60.8202,47.9204 C58.4712,47.9204 56.4102,47.3904 54.6312,46.3404 C53.8702,45.8904 53.1602,45.4004 52.5002,44.8404 C53.6602,46.2404 55.0402,47.4104 56.6312,48.3404 C58.4102,49.3904 60.4712,49.9204 62.8202,49.9204 L93.9712,49.9204 C96.2502,49.9204 98.2902,49.3904 100.0702,48.3404 C101.8602,47.2904 103.3812,45.9504 104.6312,44.3104 C105.8812,42.6604 106.8202,40.8104 107.4612,38.7504 C108.1012,36.6904 108.4212,34.6404 108.4212,32.6104 L108.4212,17.3004 C108.4212,15.2704 108.1012,13.2304 107.4612,11.1704 M88.4502,13.1004 L64.2502,13.1004 C62.1202,13.1004 60.9812,14.4604 60.8202,17.1904 L60.8202,28.7204 C60.9502,30.9504 61.7402,32.2704 63.1902,32.6804 C62.9902,32.1304 62.8602,31.4804 62.8202,30.7204 L62.8202,19.1904 C62.9812,16.4604 64.1202,15.1004 66.2502,15.1004 L90.4502,15.1004 C90.8412,15.1004 91.2112,15.1504 91.5302,15.2404 C90.9902,13.8104 89.9612,13.1004 88.4502,13.1004" id="Fill-24"></path>
                <path d="M161.6907,0.0004 L161.6907,13.1004 L143.4007,13.1004 L143.4007,47.9204 L130.8607,47.9204 L130.8607,49.9204 L145.4007,49.9204 L145.4007,15.1004 L163.6907,15.1004 L163.6907,0.0004 L161.6907,0.0004 Z M112.6507,15.1004 L128.8607,15.1004 L128.8607,13.1004 L112.6507,13.1004 L112.6507,15.1004 Z" id="Fill-25"></path>
                <path d="M166.45,15.101 L182.66,15.101 L182.66,13.101 L166.45,13.101 L166.45,15.101 Z M215.481,0 L215.481,13.101 L197.191,13.101 L197.191,47.92 L184.66,47.92 L184.66,49.92 L199.191,49.92 L199.191,15.101 L217.481,15.101 L217.481,0 L215.481,0 Z" id="Fill-26"></path>
                <path d="M271.0804,34.8105 L271.0804,47.9205 L222.0404,47.9205 L222.0404,49.9205 L273.0804,49.9205 L273.0804,34.8105 L271.0804,34.8105 Z M271.0804,0.0005 L271.0804,13.1005 L234.5804,13.1005 L234.5804,16.3505 L236.5804,16.3505 L236.5804,15.1005 L273.0804,15.1005 L273.0804,0.0005 L271.0804,0.0005 Z M270.8414,18.3505 L270.8414,29.5605 L234.5804,29.5605 L234.5804,32.8105 L236.5804,32.8105 L236.5804,31.5605 L272.8414,31.5605 L272.8414,18.3505 L270.8414,18.3505 Z" id="Fill-27"></path>
                <path d="M312.2113,35.2304 L291.0513,35.2304 L291.0513,47.9204 L278.4313,47.9204 L278.4313,49.9204 L293.0513,49.9204 L293.0513,37.2304 L313.8203,37.2304 L312.2113,35.2304 Z M321.3203,13.2004 L290.9713,13.2004 L290.9713,20.1304 L292.9713,20.1304 L292.9713,15.2004 L321.7003,15.2004 C321.6313,14.5804 321.5003,13.9104 321.3203,13.2004 L321.3203,13.2004 Z M330.6713,37.2304 C331.8413,37.2304 332.9003,36.9504 333.8603,36.3904 C334.8203,35.8304 335.6503,35.1004 336.3413,34.1904 C337.0303,33.2804 337.5803,32.2104 337.9813,30.9904 C338.3703,29.7604 338.5703,28.4904 338.5703,27.1604 L338.5703,10.0604 C338.5703,8.7404 338.4003,7.4804 338.0613,6.2904 C337.7113,5.1004 337.2003,4.0304 336.5403,3.0904 C335.9903,2.3104 335.3413,1.6704 334.5913,1.1704 C335.2313,2.0904 335.7213,3.1304 336.0613,4.2904 C336.4003,5.4804 336.5703,6.7404 336.5703,8.0604 L336.5703,25.1604 C336.5703,26.4904 336.3703,27.7604 335.9813,28.9904 C335.5803,30.2104 335.0303,31.2804 334.3413,32.1904 C333.6503,33.1004 332.8203,33.8304 331.8603,34.3904 C330.9003,34.9504 329.8413,35.2304 328.6713,35.2304 L338.7313,47.9204 L322.8303,47.9204 L324.4403,49.9204 L340.7313,49.9204 L330.6713,37.2304 Z" id="Fill-28"></path>
                <path d="M356.4808,0.0004 L356.1908,0.0004 L366.9408,12.5704 L367.0908,12.4004 L356.4808,0.0004 Z M395.2708,0.0004 L374.2108,24.7404 L374.2108,47.9204 L361.7608,47.9204 L361.7608,49.9204 L376.2108,49.9204 L376.2108,26.7404 L398.9708,0.0004 L395.2708,0.0004 Z" id="Fill-29"></path>
            </g>
        </g>
    </g>
</svg>